<mxfile host="app.diagrams.net" modified="2022-07-10T22:37:58.992Z" agent="5.0 (Windows NT 6.1; Win64; x64) AppleWebKit/537.36 (KHTML, like Gecko) Chrome/102.0.5005.124 Safari/537.36 Edg/102.0.1245.44" etag="tt-vmp-xPt-KYwNCwWcP" version="20.0.4" type="github">
  <diagram id="wg1NhjUUu41ZRQhkayv7" name="Page-1">
    <mxGraphModel dx="1840" dy="1812" grid="1" gridSize="10" guides="1" tooltips="1" connect="1" arrows="1" fold="1" page="0" pageScale="1" pageWidth="850" pageHeight="1100" background="none" math="0" shadow="0">
      <root>
        <mxCell id="0" />
        <mxCell id="1" parent="0" />
        <mxCell id="whaTrLzFB757lxW8czhN-15" value="" style="edgeStyle=none;curved=1;rounded=0;orthogonalLoop=1;jettySize=auto;html=1;endArrow=open;startSize=14;endSize=14;sourcePerimeterSpacing=8;targetPerimeterSpacing=8;" edge="1" parent="1" source="whaTrLzFB757lxW8czhN-1" target="whaTrLzFB757lxW8czhN-2">
          <mxGeometry relative="1" as="geometry" />
        </mxCell>
        <mxCell id="whaTrLzFB757lxW8czhN-1" value="Start" style="ellipse;whiteSpace=wrap;html=1;hachureGap=4;" vertex="1" parent="1">
          <mxGeometry x="150" y="-230" width="160" height="100" as="geometry" />
        </mxCell>
        <mxCell id="whaTrLzFB757lxW8czhN-16" value="" style="edgeStyle=none;curved=1;rounded=0;orthogonalLoop=1;jettySize=auto;html=1;endArrow=open;startSize=14;endSize=14;sourcePerimeterSpacing=8;targetPerimeterSpacing=8;" edge="1" parent="1" source="whaTrLzFB757lxW8czhN-2" target="whaTrLzFB757lxW8czhN-3">
          <mxGeometry relative="1" as="geometry" />
        </mxCell>
        <mxCell id="whaTrLzFB757lxW8czhN-2" value="import the data from the config" style="rounded=0;whiteSpace=wrap;html=1;hachureGap=4;" vertex="1" parent="1">
          <mxGeometry x="150" y="-80" width="160" height="80" as="geometry" />
        </mxCell>
        <mxCell id="whaTrLzFB757lxW8czhN-17" value="" style="edgeStyle=none;curved=1;rounded=0;orthogonalLoop=1;jettySize=auto;html=1;endArrow=open;startSize=14;endSize=14;sourcePerimeterSpacing=8;targetPerimeterSpacing=8;" edge="1" parent="1" source="whaTrLzFB757lxW8czhN-3" target="whaTrLzFB757lxW8czhN-4">
          <mxGeometry relative="1" as="geometry" />
        </mxCell>
        <mxCell id="whaTrLzFB757lxW8czhN-3" value="unpack the data" style="rounded=0;whiteSpace=wrap;html=1;hachureGap=4;" vertex="1" parent="1">
          <mxGeometry x="150" y="40" width="160" height="80" as="geometry" />
        </mxCell>
        <mxCell id="whaTrLzFB757lxW8czhN-18" style="edgeStyle=none;curved=1;rounded=0;orthogonalLoop=1;jettySize=auto;html=1;entryX=0.415;entryY=-0.02;entryDx=0;entryDy=0;entryPerimeter=0;endArrow=open;startSize=14;endSize=14;sourcePerimeterSpacing=8;targetPerimeterSpacing=8;" edge="1" parent="1" source="whaTrLzFB757lxW8czhN-4" target="whaTrLzFB757lxW8czhN-6">
          <mxGeometry relative="1" as="geometry">
            <Array as="points">
              <mxPoint x="-20" y="230" />
            </Array>
          </mxGeometry>
        </mxCell>
        <mxCell id="whaTrLzFB757lxW8czhN-19" style="edgeStyle=none;curved=1;rounded=0;orthogonalLoop=1;jettySize=auto;html=1;entryX=0.5;entryY=0;entryDx=0;entryDy=0;endArrow=open;startSize=14;endSize=14;sourcePerimeterSpacing=8;targetPerimeterSpacing=8;exitX=1;exitY=0.5;exitDx=0;exitDy=0;" edge="1" parent="1" source="whaTrLzFB757lxW8czhN-4" target="whaTrLzFB757lxW8czhN-10">
          <mxGeometry relative="1" as="geometry">
            <Array as="points">
              <mxPoint x="430" y="260" />
            </Array>
          </mxGeometry>
        </mxCell>
        <mxCell id="whaTrLzFB757lxW8czhN-4" value="case switch runmode" style="rhombus;whiteSpace=wrap;html=1;hachureGap=4;" vertex="1" parent="1">
          <mxGeometry x="135" y="180" width="190" height="170" as="geometry" />
        </mxCell>
        <mxCell id="whaTrLzFB757lxW8czhN-24" style="edgeStyle=none;curved=1;rounded=0;orthogonalLoop=1;jettySize=auto;html=1;endArrow=open;startSize=14;endSize=14;sourcePerimeterSpacing=8;targetPerimeterSpacing=8;" edge="1" parent="1" source="whaTrLzFB757lxW8czhN-6" target="whaTrLzFB757lxW8czhN-22">
          <mxGeometry relative="1" as="geometry" />
        </mxCell>
        <mxCell id="whaTrLzFB757lxW8czhN-6" value="Execute minmal dispatcher" style="rounded=0;whiteSpace=wrap;html=1;hachureGap=4;" vertex="1" parent="1">
          <mxGeometry x="-80" y="320" width="160" height="80" as="geometry" />
        </mxCell>
        <mxCell id="whaTrLzFB757lxW8czhN-20" style="edgeStyle=none;curved=1;rounded=0;orthogonalLoop=1;jettySize=auto;html=1;entryX=0.427;entryY=0.005;entryDx=0;entryDy=0;entryPerimeter=0;endArrow=open;startSize=14;endSize=14;sourcePerimeterSpacing=8;targetPerimeterSpacing=8;exitX=0;exitY=0.5;exitDx=0;exitDy=0;" edge="1" parent="1" source="whaTrLzFB757lxW8czhN-10" target="whaTrLzFB757lxW8czhN-11">
          <mxGeometry relative="1" as="geometry">
            <Array as="points">
              <mxPoint x="210" y="450" />
            </Array>
          </mxGeometry>
        </mxCell>
        <mxCell id="whaTrLzFB757lxW8czhN-21" style="edgeStyle=none;curved=1;rounded=0;orthogonalLoop=1;jettySize=auto;html=1;entryX=0.5;entryY=0;entryDx=0;entryDy=0;endArrow=open;startSize=14;endSize=14;sourcePerimeterSpacing=8;targetPerimeterSpacing=8;" edge="1" parent="1" source="whaTrLzFB757lxW8czhN-10" target="whaTrLzFB757lxW8czhN-14">
          <mxGeometry relative="1" as="geometry" />
        </mxCell>
        <mxCell id="whaTrLzFB757lxW8czhN-10" value="Are required packages present" style="rhombus;whiteSpace=wrap;html=1;hachureGap=4;" vertex="1" parent="1">
          <mxGeometry x="320" y="360" width="190" height="170" as="geometry" />
        </mxCell>
        <mxCell id="whaTrLzFB757lxW8czhN-23" style="edgeStyle=none;curved=1;rounded=0;orthogonalLoop=1;jettySize=auto;html=1;entryX=0;entryY=0.5;entryDx=0;entryDy=0;endArrow=open;startSize=14;endSize=14;sourcePerimeterSpacing=8;targetPerimeterSpacing=8;" edge="1" parent="1" source="whaTrLzFB757lxW8czhN-11" target="whaTrLzFB757lxW8czhN-14">
          <mxGeometry relative="1" as="geometry">
            <Array as="points">
              <mxPoint x="250" y="720" />
            </Array>
          </mxGeometry>
        </mxCell>
        <mxCell id="whaTrLzFB757lxW8czhN-11" value="Download the pakcages" style="rounded=0;whiteSpace=wrap;html=1;hachureGap=4;" vertex="1" parent="1">
          <mxGeometry x="150" y="550" width="160" height="80" as="geometry" />
        </mxCell>
        <mxCell id="whaTrLzFB757lxW8czhN-25" style="edgeStyle=none;curved=1;rounded=0;orthogonalLoop=1;jettySize=auto;html=1;entryX=0.5;entryY=0;entryDx=0;entryDy=0;endArrow=open;startSize=14;endSize=14;sourcePerimeterSpacing=8;targetPerimeterSpacing=8;" edge="1" parent="1" source="whaTrLzFB757lxW8czhN-14" target="whaTrLzFB757lxW8czhN-22">
          <mxGeometry relative="1" as="geometry" />
        </mxCell>
        <mxCell id="whaTrLzFB757lxW8czhN-14" value="Execute advanced dispatcher" style="rounded=0;whiteSpace=wrap;html=1;hachureGap=4;" vertex="1" parent="1">
          <mxGeometry x="335" y="730" width="160" height="80" as="geometry" />
        </mxCell>
        <mxCell id="whaTrLzFB757lxW8czhN-22" value="End" style="ellipse;whiteSpace=wrap;html=1;hachureGap=4;" vertex="1" parent="1">
          <mxGeometry x="130" y="890" width="160" height="100" as="geometry" />
        </mxCell>
        <mxCell id="whaTrLzFB757lxW8czhN-26" value="&lt;font style=&quot;font-size: 45px;&quot;&gt;Main flow of the Dispatcher Module&lt;/font&gt;" style="text;strokeColor=none;fillColor=none;html=1;align=center;verticalAlign=middle;whiteSpace=wrap;rounded=0;hachureGap=4;" vertex="1" parent="1">
          <mxGeometry x="-130" y="980" width="680" height="200" as="geometry" />
        </mxCell>
      </root>
    </mxGraphModel>
  </diagram>
</mxfile>
